<svg xmlns="http://www.w3.org/2000/svg" width="60" height="36" viewBox="0 0 60 36"><defs><style>.a{fill:none;}.b{fill:#0190e6;}.c{fill:#fff;}</style></defs><rect class="a" width="60" height="36" rx="2"/><g transform="translate(8.25 11.323)"><path class="b" d="M22.443,22.6l.064-.383c-.128,0-.192-.064-.319-.064a1.121,1.121,0,0,1-.319-.255.488.488,0,0,1-.128-.319l-.83-10.345a.923.923,0,0,0-.128-.447.638.638,0,0,0-.319-.255,1.184,1.184,0,0,0-.447-.128h-5.3l-.128.383a.384.384,0,0,1,.255.064l.192.192a.384.384,0,0,1,.064.255v.128c0,.064,0,.064-.064.128L9.864,21.639c0,.064-.064.128-.064.192v.192a.58.58,0,0,0,.192.447.781.781,0,0,0,.575.192H14.4l.064-.383a.384.384,0,0,1-.255-.064c-.064-.064-.128-.064-.192-.128a.235.235,0,0,1-.064-.192v-.255l.7-1.469H16.7l.128,1.788a.571.571,0,0,0,.255.511c.128.128.383.128.7.128h4.661Zm-5.811-6.833.128,1.98H15.739l.894-1.98Z" transform="translate(-9.417 -9.953)"/><path class="c" d="M17.629,22.763a1.854,1.854,0,0,1-.894-.192,1.186,1.186,0,0,1-.447-.83l-.128-1.469H14.692l-.639,1.213h.128a.488.488,0,0,1,.319.128.281.281,0,0,1,.064.319l-.064.383a.4.4,0,0,1-.383.319H10.286A.988.988,0,0,1,9.2,21.677a.384.384,0,0,1,.064-.255h0c0-.064.064-.128.064-.255l5.236-10.089h0v-.064h0a.063.063,0,0,0-.064-.064h-.064a.488.488,0,0,1-.319-.128c-.064-.128-.128-.192-.064-.319l.128-.383a.4.4,0,0,1,.383-.319h5.3a2.269,2.269,0,0,1,.639.128,1.136,1.136,0,0,1,.511.447,1.912,1.912,0,0,1,.255.639l.83,10.345a.063.063,0,0,0,.064.064c.064.064.128.128.192.128s.128.064.192.064a.488.488,0,0,1,.319.128.281.281,0,0,1,.064.319l-.064.383a.4.4,0,0,1-.383.319ZM14.5,19.506h2.043a.368.368,0,0,1,.383.383l.128,1.788a.384.384,0,0,0,.064.255,1.559,1.559,0,0,0,.447.064H21.4l-.064-.064a1.284,1.284,0,0,1-.255-.511l-.83-10.345c0-.128-.064-.192-.064-.255-.064-.064-.128-.128-.192-.128a.478.478,0,0,0-.319-.064H15.011l.064.064a.923.923,0,0,1,.128.447V11.4c0,.064-.064.128-.064.192L9.9,21.677a.063.063,0,0,1-.064.064V21.8c0,.064,0,.064.064.128a.478.478,0,0,0,.319.064h3.193a.908.908,0,0,1-.128-.383v-.128a.384.384,0,0,1,.064-.255l.7-1.469C14.245,19.57,14.372,19.506,14.5,19.506Zm2.043-1.6H15.522a.351.351,0,0,1-.319-.192.407.407,0,0,1,0-.383l.894-1.98a.428.428,0,0,1,.447-.255.358.358,0,0,1,.319.383l.128,1.98a.352.352,0,0,1-.128.319A.488.488,0,0,1,16.543,17.91Z" transform="translate(-9.2 -9.736)"/><path class="b" d="M36.083,17.94a.739.739,0,0,1,.319-.447c.128-.128.383-.128.7-.128h.7a2.132,2.132,0,0,0,.958-.192,1.285,1.285,0,0,0,.575-.7l.511-2.171H38.318a1.275,1.275,0,0,0-.575.128c-.128.064-.319.128-.383.255a2.7,2.7,0,0,0-.319.447c-.128.192-.192.383-.319.575H36.53a.694.694,0,0,0,.064-.319V15.13a.725.725,0,0,0-.192-.511.953.953,0,0,0-.639-.192H31.8l-.064.383a.483.483,0,0,1,.255.064l.192.192a.384.384,0,0,1,.064.255v.128a.235.235,0,0,1-.064.192l-1.724,7.471a.235.235,0,0,1-.064.192v.128a.488.488,0,0,0,.128.319.907.907,0,0,0,.383.128h4.406l.128-.383a.483.483,0,0,1-.255-.064L35,23.24a.384.384,0,0,1-.064-.255v-.255l1.149-4.789Z" transform="translate(-16.825 -11.363)"/><path class="c" d="M35.064,24.208H30.658a.74.74,0,0,1-.639-.255.887.887,0,0,1-.319-.639v-.192a.483.483,0,0,1,.064-.255L31.488,15.4h0v-.255l-.064-.064H31.36a.488.488,0,0,1-.319-.128.281.281,0,0,1-.064-.319l.064-.383a.4.4,0,0,1,.383-.319h3.959a1.248,1.248,0,0,1,.894.255,1.121,1.121,0,0,1,.255.319l.192-.192a1.339,1.339,0,0,1,.511-.383,2.3,2.3,0,0,1,.7-.128H39.47a.488.488,0,0,1,.319.128.281.281,0,0,1,.064.319l-.383,2.171v.064a1.51,1.51,0,0,1-.766.894,2.187,2.187,0,0,1-1.149.255h-.766a1.105,1.105,0,0,0-.447.064c-.064,0-.128.064-.128.192h0l-1.086,4.789v.064h0v.192a.063.063,0,0,0,.064.064h0a.488.488,0,0,1,.319.128c.064.128.128.255.064.319l-.128.383A.368.368,0,0,1,35.064,24.208Zm-2.81-8.62L30.53,23.059v.383a.223.223,0,0,0,.128.064h3.831l-.064-.064A1.184,1.184,0,0,1,34.3,23v-.383l1.149-4.789a.979.979,0,0,1,.447-.639,1.691,1.691,0,0,1,.894-.192h.766a1.362,1.362,0,0,0,.766-.192c.192-.064.255-.255.383-.447l.383-1.724H38.065a.947.947,0,0,0-.447.064.882.882,0,0,0-.255.192c-.064.128-.192.192-.255.383-.128.192-.192.383-.319.575a.351.351,0,0,1-.319.192h-.192a.488.488,0,0,1-.319-.128c-.064-.128-.128-.255-.064-.319,0-.128.064-.192.064-.319v-.192a.28.28,0,0,0-.064-.192.927.927,0,0,0-.383-.064H32.19a.063.063,0,0,0,.064.064,1.2,1.2,0,0,1,.128.511v.192h0C32.318,15.46,32.318,15.524,32.254,15.588Zm3.576,2.171Z" transform="translate(-16.573 -11.182)"/><path class="b" d="M49.587,19.623c-.383,0-.639-.064-.766-.255a.786.786,0,0,1-.064-.766l.958-4.214c.064-.255.128-.447.192-.639s.255-.319.383-.447a1.263,1.263,0,0,1,.7-.128h1.852a1.971,1.971,0,0,0,.7-.128.576.576,0,0,0,.383-.383,2.969,2.969,0,0,0,.192-.575,4.072,4.072,0,0,0,.128-.575,2.268,2.268,0,0,0,.128-.639c.064-.192.064-.383.128-.575h-6a3.616,3.616,0,0,0-1.149.192,3.223,3.223,0,0,0-1.086.639,3.873,3.873,0,0,0-.894,1.086,5.455,5.455,0,0,0-.575,1.533l-.958,4.214a14.243,14.243,0,0,0-.255,1.469,4.189,4.189,0,0,0,.064,1.277,2.222,2.222,0,0,0,.447.958,3.118,3.118,0,0,0,1.022.639,6.245,6.245,0,0,0,1.66.192h3.959a4,4,0,0,0,1.022-.128,1.3,1.3,0,0,0,.575-.383,1.913,1.913,0,0,0,.255-.639l.511-2.235H52.78c-.064.064-.128.192-.192.255-.128.064-.192.128-.319.128a.81.81,0,0,1-.383.064h-2.3Z" transform="translate(-21.554 -9.917)"/><path class="c" d="M50.584,22.726H46.625a4.61,4.61,0,0,1-1.788-.255,3.2,3.2,0,0,1-1.213-.7,3.241,3.241,0,0,1-.575-1.149,5.072,5.072,0,0,1-.064-1.4,12.786,12.786,0,0,1,.255-1.533L44.2,13.4a5.213,5.213,0,0,1,.639-1.6,4.182,4.182,0,0,1,.958-1.149,3.348,3.348,0,0,1,1.213-.7A4.538,4.538,0,0,1,48.285,9.7h6c.128,0,.192.064.319.128a.281.281,0,0,1,.064.319,3.239,3.239,0,0,1-.128.575h0c-.064.192-.064.447-.128.639a2.37,2.37,0,0,0-.128.575,1.912,1.912,0,0,1-.255.639,1.127,1.127,0,0,1-.575.511,1.854,1.854,0,0,1-.894.192H50.712a.989.989,0,0,0-.511.128.5.5,0,0,0-.255.255,4.4,4.4,0,0,0-.192.511h0L48.8,18.384a.54.54,0,0,0,0,.447.611.611,0,0,0,.447.128h2.3a1.258,1.258,0,0,0,.511-.192l.064-.064a.431.431,0,0,1,.383-.255h.383a.488.488,0,0,1,.319.128.281.281,0,0,1,.064.319l-.511,2.235a3.907,3.907,0,0,1-.319.766,1.271,1.271,0,0,1-.766.511C51.478,22.663,51.095,22.726,50.584,22.726Zm-2.3-12.26a2.892,2.892,0,0,0-1.022.192,3.811,3.811,0,0,0-.958.575,2.827,2.827,0,0,0-.766.958,4.575,4.575,0,0,0-.511,1.4l-.958,4.278a14.24,14.24,0,0,0-.255,1.469,3.287,3.287,0,0,0,.064,1.149,1.456,1.456,0,0,0,.383.766,2.055,2.055,0,0,0,.83.511,5.156,5.156,0,0,0,1.6.192h3.959a2.96,2.96,0,0,0,.894-.128.586.586,0,0,0,.383-.255,3.113,3.113,0,0,0,.192-.447l.319-1.469c-.064.064-.192.064-.255.128a1.247,1.247,0,0,1-.447.064H49.371a1.239,1.239,0,0,1-1.086-.447,1.225,1.225,0,0,1-.128-1.086l.958-4.214a3.6,3.6,0,0,1,.255-.766,1.253,1.253,0,0,1,.575-.575,1.854,1.854,0,0,1,.894-.192h1.852a2.416,2.416,0,0,0,.511-.064q.192-.1.192-.192a3.115,3.115,0,0,0,.192-.447c.064-.192.064-.319.128-.575.064-.192.064-.383.128-.639h0V10.53H48.285Z" transform="translate(-21.338 -9.7)"/><path class="b" d="M64.134,20.5a2.161,2.161,0,0,1,.192-.511.5.5,0,0,1,.255-.255.576.576,0,0,1,.319-.064h.383l-.383,1.6a.351.351,0,0,1-.192.319.488.488,0,0,1-.319.128h-.128c-.128,0-.192,0-.255-.064s-.064-.128-.064-.255v-.319l.192-.575Zm4.534-6H62.6l-.383,1.533a.235.235,0,0,1-.064.192v.192a.5.5,0,0,0,.192.447c.128.128.319.128.639.128h2.363a.684.684,0,0,1,.383.128c.064.064.064.192.064.383a1.4,1.4,0,0,1-.192.319.908.908,0,0,1-.383.128H62.857a2.543,2.543,0,0,0-1.4.319,2.436,2.436,0,0,0-1.022.958,5.613,5.613,0,0,0-.7,1.852c0,.128-.064.255-.064.447,0,.128-.064.319-.064.447v.383a1.92,1.92,0,0,0,.255,1.149,1.4,1.4,0,0,0,.639.575,2.181,2.181,0,0,0,.958.128h.7a3.653,3.653,0,0,0,.894-.064,2.969,2.969,0,0,0,.575-.192,2.777,2.777,0,0,0,.447-.383,5.614,5.614,0,0,0,.383-.639h.192l-.064.192a.54.54,0,0,0,0,.447.638.638,0,0,0,.255.319,1.275,1.275,0,0,0,.575.128h4.023l.064-.383h-.255c-.064,0-.128-.064-.192-.128s-.064-.128-.064-.255v-.192a.235.235,0,0,1,.064-.192l1.341-5.875c0-.064.064-.192.064-.255V16.16a1.351,1.351,0,0,0-.255-.894,1.4,1.4,0,0,0-.639-.575,1.691,1.691,0,0,0-.894-.192Z" transform="translate(-27.322 -11.435)"/><path class="c" d="M61.071,24.336a2.752,2.752,0,0,1-1.086-.192,1.4,1.4,0,0,1-.83-.766,2.641,2.641,0,0,1-.255-1.341V21.59c0-.128.064-.255.064-.447l.064-.447h0a6.4,6.4,0,0,1,.766-1.98,2.994,2.994,0,0,1,1.213-1.149,3.255,3.255,0,0,1,1.6-.319h2.363c.064,0,.128,0,.128-.064l.064-.064v-.064h0L62.8,17.12a1.248,1.248,0,0,1-.894-.255,1.075,1.075,0,0,1-.319-.766v-.255a.384.384,0,0,1,.064-.255l.383-1.469a.4.4,0,0,1,.383-.319h6.066a2.1,2.1,0,0,1,1.086.255,1.625,1.625,0,0,1,.766.7,2.152,2.152,0,0,1,.319,1.086v.639c0,.128-.064.192-.064.319l-1.4,5.875a.235.235,0,0,1-.064.192V23h.128a.488.488,0,0,1,.319.128.281.281,0,0,1,.064.319l-.064.383a.4.4,0,0,1-.383.319H65.158a1.362,1.362,0,0,1-.766-.192l-.383-.383a.993.993,0,0,1-.511.383,2.154,2.154,0,0,1-.766.255,4.228,4.228,0,0,1-.958.064l-.7.064Zm-1.213-3.448-.064.447c0,.128-.064.319-.064.383v.319a1.794,1.794,0,0,0,.192.958.858.858,0,0,0,.447.383,2.834,2.834,0,0,0,.83.128h.7a3.121,3.121,0,0,0,.83-.064,4.069,4.069,0,0,0,.447-.128A.769.769,0,0,0,63.5,23a2.228,2.228,0,0,0,.383-.575.351.351,0,0,1,.319-.192h.192a.488.488,0,0,1,.319.128.281.281,0,0,1,.064.319L64.711,23v.255a.2.2,0,0,0,.064.128.927.927,0,0,0,.383.064h3.257a.908.908,0,0,1-.128-.383V22.8a.483.483,0,0,1,.064-.255l1.341-5.875a.483.483,0,0,1,.064-.255v-.511a1.287,1.287,0,0,0-.192-.7.858.858,0,0,0-.447-.383,1.383,1.383,0,0,0-.766-.128H62.6l-.192,1.149h0V16.1a.235.235,0,0,0,.064.192s.064.064.383.064h2.363c.383,0,.575.128.639.255a.99.99,0,0,1,.128.766.93.93,0,0,1-.383.575,1.03,1.03,0,0,1-.575.192H62.667a2.431,2.431,0,0,0-1.213.255,2.726,2.726,0,0,0-.894.83A3.628,3.628,0,0,0,59.858,20.888ZM69.117,23ZM64.008,21.91a.629.629,0,0,1-.511-.192.781.781,0,0,1-.192-.575V20.76h0l.128-.639a1.482,1.482,0,0,1,.255-.639.858.858,0,0,1,.447-.383,1.247,1.247,0,0,1,.447-.064h.383a.488.488,0,0,1,.319.128.281.281,0,0,1,.064.319l-.383,1.6a1.284,1.284,0,0,1-.255.511.693.693,0,0,1-.575.255Zm.064-.7Zm0-.064H64.2a.223.223,0,0,0,.064-.128l.255-1.149h-.064l-.064.064c0,.064-.064.128-.128.383h0l-.192.639v.192Zm-.192-.894Z" transform="translate(-27.069 -11.182)"/></g></svg>