<svg xmlns="http://www.w3.org/2000/svg" width="60" height="36" viewBox="0 0 60 36"><defs><style>.a{fill:none;}.b{fill:#0058a0;}.c{fill:#faa61a;}</style></defs><rect class="a" width="60" height="36" rx="2"/><g transform="translate(10.5 11.817)"><path class="b" d="M634.2,25.09l2-11.79h3.233l-2,11.79Z" transform="translate(-620.319 -13.11)"/><path class="b" d="M649.3,13.575a7.37,7.37,0,0,0-2.852-.475c-3.138,0-5.42,1.616-5.42,3.9,0,1.711,1.616,2.662,2.852,3.233s1.711.951,1.616,1.426c0,.761-.951,1.141-1.9,1.141a7.552,7.552,0,0,1-3.042-.57l-.38-.19L639.7,24.7a13.62,13.62,0,0,0,3.613.666c3.328,0,5.61-1.616,5.61-3.993,0-1.331-.856-2.377-2.662-3.233-1.141-.57-1.807-.951-1.807-1.426s.57-1.046,1.807-1.046a5.24,5.24,0,0,1,2.377.475l.285.1.38-2.662" transform="translate(-620.589 -13.1)"/><path class="b" d="M657.938,13.3h-2.472a1.663,1.663,0,0,0-1.711.951L649,24.995h3.328s.57-1.426.666-1.807h4.088c.1.38.38,1.807.38,1.807h2.947L657.938,13.3m-3.9,7.606c.285-.666,1.236-3.328,1.236-3.328a7.321,7.321,0,0,0,.38-1.141l.19,1.046s.57,2.852.761,3.423Z" transform="translate(-621.047 -13.11)"/><path class="b" d="M630.887,13.3l-3.138,7.987-.38-1.616a9,9,0,0,0-4.469-4.944l2.852,10.269h3.423l5.039-11.79h-3.328" transform="translate(-619.763 -13.105)"/><path class="c" d="M624.734,13.3H619.6v.285c3.993.951,6.656,3.328,7.8,6.18l-1.141-5.42a1.5,1.5,0,0,0-1.521-1.046" transform="translate(-619.6 -13.11)"/></g></svg>