<svg xmlns="http://www.w3.org/2000/svg" width="60" height="36" viewBox="0 0 60 36"><defs><style>.a{fill:none;}.b{fill:#ff5f00;}.c{fill:#231f20;}.d{fill:#eb001b;}.e{fill:#f79e1b;}</style></defs><rect class="a" width="60" height="36" rx="2" transform="translate(0)"/><g transform="translate(17.25 7.793)"><rect class="b" width="6.991" height="12.564" transform="translate(9.431 1.709)"/><g transform="translate(0)"><path class="c" d="M24.555,94.834V93.5a.79.79,0,0,0-.834-.843.821.821,0,0,0-.746.377.779.779,0,0,0-.7-.377.7.7,0,0,0-.621.315v-.262H21.19v2.122h.466V93.667a.5.5,0,0,1,.519-.564c.306,0,.462.2.462.559v1.181H23.1V93.667a.5.5,0,0,1,.519-.564c.315,0,.466.2.466.559v1.181Zm6.9-2.122h-.759v-.644h-.466v.644H29.8v.422h.431v.977c0,.493.191.786.737.786a1.083,1.083,0,0,0,.577-.164l-.133-.4a.852.852,0,0,1-.408.12c-.222,0-.306-.142-.306-.355v-.968h.755Zm3.937-.053a.626.626,0,0,0-.559.311v-.257h-.457v2.122h.462v-1.19c0-.351.151-.546.444-.546a.753.753,0,0,1,.289.053l.142-.444a.989.989,0,0,0-.328-.058Zm-5.952.222a1.587,1.587,0,0,0-.866-.222c-.537,0-.888.257-.888.679,0,.346.257.559.732.626l.222.031c.253.036.373.1.373.222,0,.164-.169.257-.484.257a1.13,1.13,0,0,1-.706-.222l-.222.36a1.531,1.531,0,0,0,.919.275c.613,0,.968-.288.968-.692s-.28-.568-.741-.635l-.222-.031c-.2-.027-.36-.067-.36-.209s.151-.249.4-.249a1.367,1.367,0,0,1,.666.182ZM41.8,92.659a.626.626,0,0,0-.559.311v-.257h-.457v2.122h.462v-1.19c0-.351.151-.546.444-.546a.753.753,0,0,1,.289.053l.142-.444a.989.989,0,0,0-.328-.058Zm-5.948,1.11a1.072,1.072,0,0,0,1.132,1.11,1.11,1.11,0,0,0,.763-.253l-.222-.373a.932.932,0,0,1-.555.191.681.681,0,0,1,0-1.358.932.932,0,0,1,.555.191l.222-.373a1.11,1.11,0,0,0-.763-.253,1.072,1.072,0,0,0-1.132,1.11Zm4.323,0V92.712h-.462v.257a.806.806,0,0,0-.666-.311,1.11,1.11,0,0,0,0,2.219.806.806,0,0,0,.666-.311v.257h.462Zm-1.718,0a.637.637,0,1,1,.173.48.641.641,0,0,1-.173-.48Zm-5.571-1.11a1.11,1.11,0,0,0,.031,2.219,1.289,1.289,0,0,0,.881-.289l-.222-.342a1.01,1.01,0,0,1-.617.222.588.588,0,0,1-.635-.519H33.9v-.178a1.009,1.009,0,0,0-1.008-1.11Zm0,.413a.526.526,0,0,1,.537.515h-1.11a.546.546,0,0,1,.564-.515Zm11.565.7V91.86h-.444v1.11a.806.806,0,0,0-.666-.311,1.11,1.11,0,0,0,0,2.219.806.806,0,0,0,.666-.311v.257h.444Zm.77.752a.213.213,0,0,1,.2.127.206.206,0,0,1,0,.164.212.212,0,0,1-.115.111.209.209,0,0,1-.084.018.222.222,0,0,1-.2-.129.209.209,0,0,1,0-.164.215.215,0,0,1,.206-.127Zm0,.375a.158.158,0,0,0,.064-.013.166.166,0,0,0,.051-.036.16.16,0,0,0-.051-.257.16.16,0,0,0-.064-.013.167.167,0,0,0-.064.013.162.162,0,0,0-.053.035.161.161,0,0,0,.124.271Zm.013-.264a.089.089,0,0,1,.058.018.055.055,0,0,1,.02.047.053.053,0,0,1-.016.04.078.078,0,0,1-.047.02l.064.073h-.051l-.06-.073h-.02v.073h-.042v-.2Zm-.049.038v.053h.049a.047.047,0,0,0,.027,0,104.563,104.563,0,0,1,0-.04.047.047,0,0,0-.027,0Zm-2.441-.9a.637.637,0,1,1,.173.48A.641.641,0,0,1,42.745,93.773Zm-15.587,0V92.712H26.7v.257a.806.806,0,0,0-.666-.311,1.11,1.11,0,0,0,0,2.219.806.806,0,0,0,.666-.311v.257h.462Zm-1.718,0a.63.63,0,1,1,.17.482.641.641,0,0,1-.17-.482Z" transform="translate(-19.851 -74.835)"/><path class="d" d="M25.03,23.145a7.977,7.977,0,0,1,3.052-6.283,7.99,7.99,0,1,0,0,12.564A7.976,7.976,0,0,1,25.03,23.145Z" transform="translate(-15.155 -15.154)"/><path class="e" d="M86.328,23.142A7.99,7.99,0,0,1,73.4,29.423a7.99,7.99,0,0,0,0-12.564A7.99,7.99,0,0,1,86.328,23.14Z" transform="translate(-60.474 -15.151)"/></g></g></svg>