<svg width="47" height="32" viewBox="0 0 47 32" fill="none" xmlns="http://www.w3.org/2000/svg">
<rect x="0.5" y="0.5" width="46" height="31" rx="5.5" fill="#1F72CD" stroke="#F3F5F8"/>
<path fill-rule="evenodd" clip-rule="evenodd" d="M8.42598 11.3333L4.02856 20.9957H9.29289L9.94551 19.4551H11.4373L12.0899 20.9957H17.8844V19.8198L18.4008 20.9957H21.3982L21.9145 19.795V20.9957H33.9656L35.4309 19.4951L36.803 20.9957L42.9927 21.0081L38.5814 16.1915L42.9927 11.3333H36.899L35.4726 12.8062L34.1437 11.3333H21.0337L19.9079 13.8273L18.7558 11.3333H13.5024V12.4691L12.918 11.3333H8.42598ZM9.4446 12.7054H12.0107L14.9275 19.2575V12.7054H17.7385L19.9914 17.4032L22.0677 12.7054H24.8647V19.6388H23.1628L23.1489 14.2058L20.6677 19.6388H19.1453L16.6502 14.2058V19.6388H13.149L12.4852 18.0844H8.89912L8.23673 19.6374H6.36082L9.4446 12.7054ZM33.3421 12.7054H26.4218V19.6347H33.2349L35.4309 17.3382L37.5475 19.6347H39.7601L36.5442 16.1901L39.7601 12.7054H37.6435L35.4587 14.9755L33.3421 12.7054ZM10.6929 13.8785L9.51143 16.6475H11.873L10.6929 13.8785ZM28.1307 15.4066V14.1409V14.1397H32.4488L34.3329 16.1639L32.3653 18.1991H28.1307V16.8173H31.906V15.4066H28.1307Z" fill="white"/>
</svg>
