<svg width="47" height="32" viewBox="0 0 47 32" fill="none" xmlns="http://www.w3.org/2000/svg">
<rect x="0.5" y="0.5" width="46" height="31" rx="5.5" fill="white" stroke="#F3F5F8"/>
<path fill-rule="evenodd" clip-rule="evenodd" d="M12.8647 11.1242C12.4702 11.5934 11.839 11.9635 11.2078 11.9106C11.1289 11.2762 11.4379 10.6021 11.7995 10.1858C12.194 9.70341 12.8844 9.35977 13.4433 9.33334C13.509 9.99418 13.2526 10.6418 12.8647 11.1242ZM13.4366 12.0362C12.8806 12.004 12.3732 12.2043 11.9633 12.366C11.6996 12.4701 11.4763 12.5582 11.3063 12.5582C11.1157 12.5582 10.8831 12.4654 10.622 12.3611L10.622 12.3611C10.2799 12.2245 9.8887 12.0683 9.4785 12.0758C8.53828 12.089 7.66381 12.6243 7.18384 13.4768C6.19759 15.1818 6.92741 17.7062 7.88078 19.0939C8.34761 19.7812 8.90648 20.5346 9.64288 20.5081C9.96685 20.4959 10.1999 20.3965 10.4411 20.2936L10.4411 20.2936C10.7187 20.1752 11.0072 20.0522 11.4576 20.0522C11.8923 20.0522 12.1682 20.172 12.433 20.287C12.6847 20.3963 12.9265 20.5014 13.2854 20.4949C14.0481 20.4817 14.5281 19.8077 14.9949 19.1204C15.4987 18.3828 15.7201 17.6629 15.7537 17.5536L15.7576 17.541C15.7568 17.5402 15.7506 17.5373 15.7396 17.5322C15.5712 17.4548 14.284 16.8625 14.2717 15.2743C14.2593 13.9412 15.2926 13.2658 15.4553 13.1595C15.4652 13.153 15.4719 13.1487 15.4749 13.1464C14.8174 12.1683 13.7917 12.0626 13.4366 12.0362ZM18.7164 20.4222V10.1197H22.5628C24.5484 10.1197 25.9357 11.4943 25.9357 13.5032C25.9357 15.5122 24.5221 16.9 22.5102 16.9H20.3076V20.4222H18.7164ZM20.3074 11.4678H22.1418C23.5226 11.4678 24.3116 12.208 24.3116 13.5098C24.3116 14.8117 23.5226 15.5584 22.1353 15.5584H20.3074V11.4678ZM31.1892 19.1864C30.7684 19.9927 29.8413 20.5015 28.8419 20.5015C27.3626 20.5015 26.3303 19.616 26.3303 18.2811C26.3303 16.9594 27.3297 16.1994 29.1773 16.0871L31.1629 15.9681V15.3998C31.1629 14.5606 30.6172 14.1046 29.6441 14.1046C28.8419 14.1046 28.2568 14.5209 28.1384 15.1553H26.7051C26.7511 13.8204 28.0003 12.849 29.6901 12.849C31.5114 12.849 32.6949 13.8072 32.6949 15.2941V20.4222H31.2221V19.1864H31.1892ZM29.2692 19.279C28.421 19.279 27.8819 18.8693 27.8819 18.2415C27.8819 17.5938 28.4013 17.2172 29.3941 17.1577L31.1628 17.0453V17.6269C31.1628 18.5917 30.3475 19.279 29.2692 19.279ZM37.58 20.8253C36.9423 22.6294 36.2124 23.2242 34.6607 23.2242C34.5424 23.2242 34.1479 23.211 34.0558 23.1845V21.9488C34.1545 21.962 34.3977 21.9752 34.5227 21.9752C35.2262 21.9752 35.6207 21.6778 35.864 20.9046L36.0086 20.4487L33.3129 12.9481H34.9763L36.8502 19.0345H36.8831L38.757 12.9481H40.3744L37.58 20.8253Z" fill="black"/>
</svg>
