<svg width="47" height="32" viewBox="0 0 47 32" fill="none" xmlns="http://www.w3.org/2000/svg">
<rect x="0.5" y="0.5" width="46" height="31" rx="5.5" fill="white" stroke="#F3F5F8"/>
<path d="M25.5748 25.9999C30.8086 26.025 35.5857 21.7228 35.5857 16.4893C35.5857 10.7666 30.8086 6.81048 25.5748 6.81262H21.0703C15.7741 6.81048 11.4143 10.7677 11.4143 16.4893C11.4143 21.7239 15.7741 26.025 21.0703 25.9999H25.5748Z" fill="#0079BE"/>
<path d="M21.0918 7.60564C16.2517 7.60725 12.3302 11.5377 12.3286 16.3889C12.3302 21.2395 16.2517 25.17 21.0918 25.1716C25.9324 25.17 29.8555 21.2395 29.856 16.3889C29.8555 11.5377 25.9329 7.60725 21.0918 7.60564ZM15.5374 16.3889C15.5364 15.2673 15.8762 14.1714 16.5124 13.2446C17.1486 12.3177 18.0516 11.603 19.1033 11.1938V21.5834C18.0515 21.1745 17.1484 20.4599 16.5122 19.5332C15.8759 18.6064 15.5362 17.5105 15.5374 16.3889ZM23.0797 21.5856V11.1933C24.1322 11.6019 25.036 12.3166 25.6727 13.2437C26.3093 14.1709 26.6492 15.2673 26.6477 16.3894C26.649 17.5115 26.309 18.6078 25.6724 19.535C25.0358 20.4621 24.1321 21.1768 23.0797 21.5856Z" fill="white"/>
<path d="M25.5748 25.9999C30.8086 26.025 35.5857 21.7228 35.5857 16.4893C35.5857 10.7666 30.8086 6.81048 25.5748 6.81262H21.0703C15.7741 6.81048 11.4143 10.7677 11.4143 16.4893C11.4143 21.7239 15.7741 26.025 21.0703 25.9999H25.5748Z" fill="#0079BE"/>
<path d="M21.0918 7.60564C16.2517 7.60725 12.3302 11.5377 12.3286 16.3889C12.3302 21.2395 16.2517 25.17 21.0918 25.1716C25.9324 25.17 29.8555 21.2395 29.856 16.3889C29.8555 11.5377 25.9329 7.60725 21.0918 7.60564ZM15.5374 16.3889C15.5364 15.2673 15.8762 14.1714 16.5124 13.2446C17.1486 12.3177 18.0516 11.603 19.1033 11.1938V21.5834C18.0515 21.1745 17.1484 20.4599 16.5122 19.5332C15.8759 18.6064 15.5362 17.5105 15.5374 16.3889ZM23.0797 21.5856V11.1933C24.1322 11.6019 25.036 12.3166 25.6727 13.2437C26.3093 14.1709 26.6492 15.2673 26.6477 16.3894C26.649 17.5115 26.309 18.6078 25.6724 19.535C25.0358 20.4621 24.1321 21.1768 23.0797 21.5856Z" fill="white"/>
</svg>
