<svg width="47" height="32" viewBox="0 0 47 32" fill="none" xmlns="http://www.w3.org/2000/svg">
<rect x="0.5" y="0.5" width="46" height="31" rx="5.5" fill="white" stroke="#F3F5F8"/>
<path d="M19.8071 31.3333L46.3286 23.6667V26.3333C46.3286 29.0947 44.09 31.3333 41.3286 31.3333H19.8071Z" fill="#FD6020"/>
<path fill-rule="evenodd" clip-rule="evenodd" d="M41.2947 12.8145C42.7537 12.8145 43.5562 13.4592 43.5562 14.677C43.6292 15.6083 42.9726 16.3963 42.0972 16.5395L44.0669 19.1901H42.5349L40.8569 16.6112H40.711V19.1901H39.4708V12.8145H41.2947ZM40.711 15.7515H41.0758C41.8783 15.7515 42.2431 15.3933 42.2431 14.7486C42.2431 14.1755 41.8783 13.8173 41.0758 13.8173H40.711V15.7515ZM35.1665 19.1901H38.6683V18.1155H36.4067V16.3963H38.5953V15.3217H36.4067V13.889H38.6683V12.8145H35.1665V19.1901ZM31.5188 17.1126L29.8408 12.8145H28.5276L31.2269 19.3333H31.8835L34.5828 12.8145H33.2697L31.5188 17.1126ZM16.709 16.0381C16.709 17.829 18.1681 19.3333 19.9919 19.3333C20.5756 19.3333 21.0863 19.1901 21.5969 18.9751V17.5424C21.2322 17.9722 20.7215 18.2588 20.1378 18.2588C18.9706 18.2588 18.0222 17.3992 18.0222 16.253V16.1097C17.9492 14.9635 18.8976 13.9606 20.0649 13.889C20.6485 13.889 21.2322 14.1755 21.5969 14.6054V13.1726C21.1592 12.8861 20.5756 12.8145 20.0649 12.8145C18.1681 12.6712 16.709 14.1755 16.709 16.0381ZM14.4474 15.2501C13.7179 14.9635 13.499 14.8203 13.499 14.4621C13.5719 14.0323 13.9367 13.6741 14.3744 13.7457C14.7392 13.7457 15.104 13.9606 15.3958 14.2472L16.0524 13.3875C15.5417 12.9577 14.8851 12.6712 14.2285 12.6712C13.2072 12.5996 12.3317 13.3875 12.2588 14.3905V14.4621C12.2588 15.3217 12.6235 15.8232 13.7908 16.1814C14.0826 16.253 14.3744 16.3963 14.6663 16.5395C14.8851 16.6828 15.031 16.8977 15.031 17.1843C15.031 17.6857 14.5933 18.1155 14.1556 18.1155H14.0826C13.499 18.1155 12.9883 17.7573 12.7694 17.2559L11.9669 18.0439C12.4047 18.8319 13.2801 19.2617 14.1556 19.2617C15.3229 19.3333 16.2713 18.4737 16.3442 17.3275V17.1126C16.2713 16.253 15.9065 15.8232 14.4474 15.2501ZM10.216 19.1901H11.4563V12.8145H10.216V19.1901ZM4.45264 12.8145H6.2765H6.64127C8.39218 12.8861 9.77831 14.3188 9.70536 16.0381C9.70536 16.9694 9.26763 17.829 8.53809 18.4737C7.8815 18.9752 7.079 19.2617 6.2765 19.1901H4.45264V12.8145ZM6.05762 18.1155C6.64126 18.1872 7.29785 17.9723 7.73557 17.6141C8.1733 17.1843 8.39216 16.6112 8.39216 15.9665C8.39216 15.3934 8.1733 14.8203 7.73557 14.3905C7.29785 14.0323 6.64126 13.8174 6.05762 13.889H5.69285V18.1155H6.05762Z" fill="black"/>
<path fill-rule="evenodd" clip-rule="evenodd" d="M25.3176 12.6667C23.4938 12.6667 21.9617 14.0994 21.9617 15.9619C21.9617 17.7528 23.4208 19.2572 25.3176 19.3288C27.2145 19.4004 28.6735 17.8961 28.7465 16.0336C28.6735 14.171 27.2145 12.6667 25.3176 12.6667V12.6667Z" fill="#FD6020"/>
</svg>
