<svg width="47" height="32" viewBox="0 0 47 32" fill="none" xmlns="http://www.w3.org/2000/svg">
<rect x="0.5" y="0.5" width="46" height="31" rx="5.5" fill="white" stroke="#F3F5F8"/>
<path fill-rule="evenodd" clip-rule="evenodd" d="M22.1976 21.0108V16.9828H24.2914C25.1493 16.9828 25.8735 16.6974 26.4638 16.1344L26.6055 15.9917C27.6839 14.8261 27.613 13.0104 26.4638 11.932C25.8892 11.3612 25.1021 11.0519 24.2914 11.0678H20.9304V21.0108H22.1976ZM22.1978 15.7618V12.2888H24.3233C24.78 12.2888 25.2129 12.4633 25.5357 12.7804C26.2206 13.4465 26.2364 14.5565 25.5751 15.2464C25.2523 15.5873 24.7957 15.7776 24.3233 15.7618H22.1978ZM32.5169 14.7389C31.9737 14.2394 31.2338 13.9857 30.2972 13.9857C29.0929 13.9857 28.1877 14.4297 27.5895 15.3098L28.7072 16.0155C29.1165 15.4129 29.6753 15.1116 30.3837 15.1116C30.8324 15.1116 31.2653 15.2781 31.6038 15.5794C31.9344 15.8648 32.1233 16.2772 32.1233 16.7133V17.0066C31.6353 16.737 31.0213 16.5943 30.2657 16.5943C29.3841 16.5943 28.6757 16.8005 28.1483 17.2207C27.6209 17.6409 27.3533 18.196 27.3533 18.9017C27.3376 19.5439 27.6131 20.1544 28.1011 20.5668C28.597 21.0108 29.2267 21.2328 29.9666 21.2328C30.8403 21.2328 31.5329 20.8443 32.0603 20.0672H32.1154V21.0108H33.3276V16.8163C33.3276 15.9362 33.06 15.2385 32.5169 14.7389ZM29.0774 19.758C28.8176 19.5677 28.6601 19.2584 28.6601 18.9254C28.6601 18.5528 28.8333 18.2435 29.1718 17.9977C29.5182 17.7519 29.9512 17.6251 30.4629 17.6251C31.1714 17.6171 31.7225 17.7757 32.1161 18.0929C32.1161 18.6321 31.9036 19.0999 31.4863 19.4963C31.1085 19.8769 30.5967 20.091 30.0614 20.091C29.7071 20.0989 29.3608 19.98 29.0774 19.758ZM36.0511 24L40.2858 14.2077H38.9083L36.9484 19.092H36.9248L34.9176 14.2077H33.5401L36.3187 20.5747L34.7444 24H36.0511Z" fill="#3C4043"/>
<path d="M17.8226 16.1106C17.8226 15.7221 17.7911 15.3336 17.7281 14.953H12.3835V17.1493H15.4455C15.3195 17.855 14.9102 18.4893 14.312 18.8858V20.313H16.1381C17.2086 19.3219 17.8226 17.855 17.8226 16.1106Z" fill="#4285F4"/>
<path d="M12.3838 21.6926C13.9108 21.6926 15.2017 21.1852 16.1384 20.313L14.3122 18.8858C13.8006 19.2346 13.1473 19.4329 12.3838 19.4329C10.904 19.4329 9.65246 18.4259 9.2038 17.0779H7.32257V18.5527C8.28286 20.4795 10.2428 21.6926 12.3838 21.6926Z" fill="#34A853"/>
<path d="M9.20397 17.078C8.96779 16.3723 8.96779 15.6032 9.20397 14.8896V13.4227H7.32244C6.51158 15.0323 6.51158 16.9353 7.32244 18.5448L9.20397 17.078Z" fill="#FBBC04"/>
<path d="M12.3838 12.5346C13.1945 12.5188 13.9738 12.828 14.5562 13.391L16.1777 11.7576C15.1466 10.7903 13.7927 10.259 12.3838 10.2749C10.2428 10.2749 8.28286 11.4959 7.32257 13.4227L9.2038 14.8975C9.65246 13.5416 10.904 12.5346 12.3838 12.5346Z" fill="#EA4335"/>
</svg>
