<svg width="47" height="32" viewBox="0 0 47 32" fill="none" xmlns="http://www.w3.org/2000/svg">
<rect x="0.5" y="0.5" width="46" height="31" rx="5.5" fill="white" stroke="#F3F5F8"/>
<path d="M29.9701 16.3833C30.6599 16.3982 31.3536 16.3531 32.0407 16.4068C32.7364 16.5356 32.9041 17.5815 32.286 17.924C31.8642 18.1497 31.3632 18.008 30.906 18.0478H29.9701V16.3833ZM32.4395 14.4993C32.5928 15.0364 32.0713 15.5186 31.5503 15.4447H29.9701C29.9812 14.9382 29.9485 14.3884 29.9862 13.9086C30.6192 13.9263 31.2581 13.8725 31.8874 13.9367C32.1578 14.0042 32.3842 14.2249 32.4395 14.4993ZM36.2424 6.53418C36.2718 7.55991 36.2467 8.63986 36.2551 9.68641C36.2532 13.9413 36.2593 18.196 36.2518 22.4511C36.224 24.0457 34.8007 25.4313 33.2058 25.4631C31.6094 25.4696 30.0127 25.4641 28.4161 25.4659V19.0334C30.1557 19.0245 31.8962 19.0515 33.6351 19.02C34.4418 18.9697 35.3254 18.4412 35.363 17.5597C35.4579 16.6745 34.6174 16.0622 33.8193 15.9655C33.5125 15.9576 33.5215 15.8767 33.8193 15.8414C34.5805 15.6781 35.1782 14.8959 34.9543 14.1125C34.7634 13.2885 33.8462 12.9696 33.0834 12.9712C31.5278 12.9607 29.972 12.9697 28.4164 12.9667C28.4265 11.7658 28.3955 10.5637 28.4331 9.3637C28.5564 7.79787 30.0155 6.50657 31.588 6.53459C33.1397 6.53435 34.6911 6.53435 36.2424 6.5343V6.53418Z" fill="url(#paint0_linear)"/>
<path d="M10.8376 9.52576C10.8774 7.93368 12.3067 6.55944 13.8996 6.53618C15.4901 6.53131 17.0809 6.53547 18.6714 6.53407C18.667 11.8608 18.68 17.1882 18.6649 22.5147C18.6036 24.0874 17.1898 25.4355 15.6143 25.4633C14.0208 25.4691 12.427 25.4641 10.8334 25.4657V18.8164C12.3814 19.1795 14.0046 19.334 15.5837 19.0932C16.5277 18.9424 17.5604 18.4821 17.88 17.5098C18.1152 16.6781 17.9828 15.8027 18.0178 14.9491V12.9666H15.2849C15.2726 14.2778 15.3101 15.5912 15.2652 16.9008C15.1915 17.7057 14.3886 18.2172 13.624 18.1899C12.6758 18.1998 10.7967 17.5075 10.7967 17.5075C10.792 15.0509 10.8242 11.9744 10.8376 9.526V9.52576Z" fill="url(#paint1_linear)"/>
<path d="M19.6906 13.7661C19.5467 13.7964 19.6617 13.2796 19.6249 13.0835C19.6347 11.8439 19.6044 10.603 19.6416 9.36426C19.7645 7.79181 21.2348 6.49729 22.8136 6.5341H27.4632C27.4588 11.8609 27.4718 17.1882 27.4566 22.5147C27.3953 24.0875 25.9814 25.4355 24.4059 25.4634C22.8123 25.4693 21.2185 25.4643 19.6248 25.4658V18.1806C20.7132 19.0673 22.1926 19.2053 23.5485 19.2077C24.5708 19.2074 25.5871 19.0509 26.5798 18.8168V17.4821C25.4611 18.0357 24.1459 18.3874 22.9057 18.0693C22.0406 17.8555 21.4126 17.0254 21.4266 16.1389C21.3264 15.217 21.8706 14.2437 22.783 13.9697C23.9158 13.6175 25.1505 13.8869 26.2123 14.3447C26.4398 14.4629 26.6707 14.6096 26.5798 14.2321V13.183C24.8038 12.7635 22.9139 12.6091 21.1297 13.0655C20.6132 13.2101 20.1101 13.4295 19.6906 13.7662V13.7661Z" fill="url(#paint2_linear)"/>
<defs>
<linearGradient id="paint0_linear" x1="28.3626" y1="15.5953" x2="36.2057" y2="15.5953" gradientUnits="userSpaceOnUse">
<stop stop-color="#58B03A"/>
<stop offset="1" stop-color="#55B330"/>
</linearGradient>
<linearGradient id="paint1_linear" x1="10.6667" y1="16.1812" x2="18.5429" y2="16.1812" gradientUnits="userSpaceOnUse">
<stop stop-color="#0F6EB6"/>
<stop offset="1" stop-color="#006DBA"/>
</linearGradient>
<linearGradient id="paint2_linear" x1="19.6133" y1="15.7786" x2="27.4617" y2="15.7786" gradientUnits="userSpaceOnUse">
<stop stop-color="#DE0D3D"/>
<stop offset="1" stop-color="#E30138"/>
</linearGradient>
</defs>
</svg>
