<svg width="47" height="32" viewBox="0 0 47 32" fill="none" xmlns="http://www.w3.org/2000/svg">
<rect x="0.5" y="0.5" width="46" height="31" rx="5.5" fill="white" stroke="#F3F5F8"/>
<path d="M26.9847 16.1693C26.9847 21.2525 22.8821 25.3732 17.8213 25.3732C12.7605 25.3732 8.65796 21.2525 8.65796 16.1693C8.65796 11.086 12.7605 6.96527 17.8213 6.96527C22.8821 6.96527 26.9847 11.086 26.9847 16.1693Z" fill="#ED0006"/>
<path d="M38.8722 16.1693C38.8722 21.2525 34.7697 25.3732 29.7089 25.3732C24.6481 25.3732 20.5455 21.2525 20.5455 16.1693C20.5455 11.086 24.6481 6.96527 29.7089 6.96527C34.7697 6.96527 38.8722 11.086 38.8722 16.1693Z" fill="#0099DF"/>
<path fill-rule="evenodd" clip-rule="evenodd" d="M23.7651 9.16403C25.7353 10.8522 26.9846 13.3642 26.9846 16.1693C26.9846 18.9744 25.7353 21.4863 23.7651 23.1745C21.7949 21.4863 20.5456 18.9744 20.5456 16.1693C20.5456 13.3642 21.7949 10.8522 23.7651 9.16403Z" fill="#6C6BBD"/>
</svg>
