<svg width="47" height="32" viewBox="0 0 47 32" fill="none" xmlns="http://www.w3.org/2000/svg">
<rect x="0.5" y="0.5" width="46" height="31" rx="5.5" fill="white" stroke="#F3F5F8"/>
<path fill-rule="evenodd" clip-rule="evenodd" d="M23.7651 23.1746C22.165 24.5456 20.0894 25.3733 17.8213 25.3733C12.7605 25.3733 8.65796 21.2525 8.65796 16.1693C8.65796 11.0861 12.7605 6.96533 17.8213 6.96533C20.0894 6.96533 22.165 7.793 23.7651 9.16404C25.3652 7.793 27.4408 6.96533 29.7089 6.96533C34.7697 6.96533 38.8722 11.0861 38.8722 16.1693C38.8722 21.2525 34.7697 25.3733 29.7089 25.3733C27.4408 25.3733 25.3652 24.5456 23.7651 23.1746Z" fill="#ED0006"/>
<path fill-rule="evenodd" clip-rule="evenodd" d="M23.7651 23.1746C25.7354 21.4864 26.9847 18.9744 26.9847 16.1693C26.9847 13.3642 25.7354 10.8522 23.7651 9.16404C25.3652 7.793 27.4409 6.96533 29.7089 6.96533C34.7697 6.96533 38.8723 11.0861 38.8723 16.1693C38.8723 21.2525 34.7697 25.3733 29.7089 25.3733C27.4409 25.3733 25.3652 24.5456 23.7651 23.1746Z" fill="#F9A000"/>
<path fill-rule="evenodd" clip-rule="evenodd" d="M23.7652 9.16406C25.7354 10.8522 26.9847 13.3642 26.9847 16.1693C26.9847 18.9744 25.7354 21.4864 23.7652 23.1745C21.795 21.4864 20.5457 18.9744 20.5457 16.1693C20.5457 13.3642 21.795 10.8522 23.7652 9.16406Z" fill="#FF5E00"/>
</svg>
