<svg width="47" height="32" viewBox="0 0 47 32" fill="none" xmlns="http://www.w3.org/2000/svg">
<rect x="0.5" y="0.5" width="46" height="31" rx="5.5" fill="white" stroke="#F3F5F8"/>
<path fill-rule="evenodd" clip-rule="evenodd" d="M8.42151 11.0017C8.75206 10.9997 9.73445 10.9121 10.1506 12.3036C10.4309 13.2409 10.8774 14.7763 11.4901 16.9098H11.7396C12.3967 14.6605 12.8481 13.1251 13.0938 12.3036C13.5142 10.8976 14.5653 11.0017 14.9858 11.0017L18.2297 11.0017V21H14.9234V15.1078H14.7017L12.8586 21H10.3711L8.52799 15.1035H8.30628V21H5V11.0017L8.42151 11.0017ZM22.9775 11.0017V16.8983H23.2412L25.4832 12.0496C25.9184 11.0847 26.8459 11.0017 26.8459 11.0017H30.0454V21H26.6701V15.1035H26.4063L24.2083 19.9521C23.7731 20.9127 22.8016 21 22.8016 21H19.6021V11.0017H22.9775ZM41.712 15.753C41.2412 17.0749 39.7626 18.0217 38.1257 18.0217H34.586V21H31.3762V15.753H41.712Z" fill="#0F754E"/>
<path fill-rule="evenodd" clip-rule="evenodd" d="M38.2805 11.0017H31.2079C31.3763 13.2276 33.311 15.1332 35.3138 15.1332H41.9351C42.3172 13.2831 41.0018 11.0017 38.2805 11.0017Z" fill="url(#paint0_linear)"/>
<defs>
<linearGradient id="paint0_linear" x1="42" y1="13.6006" x2="31.2079" y2="13.6006" gradientUnits="userSpaceOnUse">
<stop stop-color="#1F5CD7"/>
<stop offset="1" stop-color="#02AEFF"/>
</linearGradient>
</defs>
</svg>
