c<svg width="47" height="32" viewBox="0 0 47 32" fill="none" xmlns="http://www.w3.org/2000/svg">
<rect x="0.5" y="0.5" width="46" height="31" rx="5.5" fill="white" stroke="#F3F5F8"/>
<path d="M14.5401 6.66821H21.947C22.981 6.66821 23.624 7.50498 23.3828 8.53499L19.9344 23.2355C19.691 24.2619 18.6558 25.0994 17.6212 25.0994H10.215C9.18249 25.0994 8.53798 24.2619 8.77917 23.2355L12.2291 8.53499C12.4703 7.50498 13.5049 6.66821 14.5401 6.66821Z" fill="#E21836"/>
<path d="M21.3302 6.66666H29.848C30.8817 6.66666 30.4156 7.50343 30.1724 8.53344L26.7245 23.2339C26.4826 24.2604 26.5581 25.0978 25.5221 25.0978H17.0044C15.9685 25.0978 15.3274 24.2604 15.5707 23.2339L19.0185 8.53344C19.2633 7.50343 20.2958 6.66666 21.3302 6.66666Z" fill="#00447C"/>
<path d="M29.5103 6.66666H36.9172C37.9526 6.66666 38.5957 7.50343 38.3525 8.53344L34.9046 23.2339C34.6612 24.2604 33.6253 25.0978 32.5901 25.0978H25.1866C24.1507 25.0978 23.5082 24.2604 23.7508 23.2339L27.1993 8.53344C27.4405 7.50343 28.4744 6.66666 29.5103 6.66666Z" fill="#007B84"/>
<path d="M16.4742 11.3777C15.7125 11.3854 15.4875 11.3777 15.4157 11.3609C15.3881 11.4912 14.8741 13.8454 14.8726 13.8474C14.762 14.3236 14.6814 14.6632 14.4079 14.8824C14.2527 15.0098 14.0714 15.0713 13.8613 15.0713C13.5235 15.0713 13.3267 14.9048 13.2936 14.5889L13.2873 14.4805C13.2873 14.4805 13.3902 13.8425 13.3902 13.8389C13.3902 13.8389 13.9297 11.6936 14.0263 11.41C14.0313 11.3939 14.0328 11.3854 14.034 11.3777C12.984 11.3869 12.7979 11.3777 12.7851 11.3609C12.778 11.384 12.752 11.517 12.752 11.517L12.2012 13.935L12.1539 14.1401L12.0624 14.8109C12.0624 15.0098 12.1017 15.1722 12.1801 15.3096C12.431 15.745 13.1469 15.8102 13.5518 15.8102C14.0736 15.8102 14.563 15.7002 14.8937 15.4992C15.4679 15.1624 15.6181 14.6359 15.752 14.1681L15.8141 13.928C15.8141 13.928 16.3698 11.6999 16.4642 11.41C16.4678 11.3939 16.4693 11.3854 16.4742 11.3777ZM18.3649 13.1752C18.2309 13.1752 17.9861 13.2075 17.7662 13.3145C17.6864 13.3552 17.611 13.4022 17.5313 13.4489L17.6032 13.1914L17.5638 13.148C17.0975 13.2417 16.9932 13.2543 16.5624 13.3145L16.5263 13.3383C16.4763 13.7501 16.4319 14.0597 16.2465 14.869C16.1759 15.1673 16.1026 15.4685 16.0291 15.766L16.0489 15.8038C16.4904 15.7807 16.6243 15.7807 17.008 15.787L17.039 15.7535C17.0878 15.5056 17.0941 15.4475 17.202 14.9454C17.2528 14.7073 17.3586 14.1843 17.4107 13.998C17.5066 13.9539 17.6012 13.9105 17.6915 13.9105C17.9065 13.9105 17.8803 14.0968 17.872 14.171C17.8628 14.2956 17.7844 14.7025 17.7041 15.0519L17.6505 15.2774C17.6131 15.4439 17.5721 15.6058 17.5348 15.7709L17.551 15.8038C17.9861 15.7807 18.1188 15.7807 18.4904 15.787L18.534 15.7535C18.6012 15.3663 18.6209 15.2627 18.74 14.6989L18.8 14.4399C18.9164 13.9329 18.9749 13.6759 18.8868 13.4665C18.7937 13.2319 18.5701 13.1752 18.3649 13.1752ZM20.477 13.706C20.2457 13.7501 20.0983 13.7795 19.9517 13.7985C19.8063 13.8216 19.6646 13.8426 19.4411 13.8734L19.4234 13.8894L19.4072 13.9021C19.3839 14.0674 19.3676 14.2102 19.3367 14.3782C19.3106 14.5519 19.2703 14.7493 19.2048 15.0328C19.154 15.2499 19.1279 15.3256 19.099 15.4019C19.0708 15.4783 19.0398 15.5525 18.9827 15.766L18.9961 15.7857L19.0073 15.8038C19.2161 15.794 19.3528 15.787 19.4933 15.7857C19.6335 15.7807 19.7789 15.7857 20.0038 15.787L20.0235 15.771L20.0446 15.7535C20.0771 15.5609 20.082 15.5091 20.1019 15.4152C20.1215 15.3145 20.1555 15.175 20.2387 14.8025C20.2781 14.6275 20.3219 14.4531 20.3627 14.2746C20.4052 14.0968 20.4496 13.9216 20.4918 13.7467L20.4855 13.7255L20.477 13.706ZM20.4819 12.9904C20.2718 12.8672 19.903 12.9063 19.6547 13.0764C19.4072 13.2431 19.379 13.4797 19.5885 13.6045C19.795 13.7242 20.1653 13.6886 20.4114 13.517C20.6583 13.3467 20.6892 13.1122 20.4819 12.9904ZM21.7528 15.8424C22.178 15.8424 22.6138 15.7261 22.9419 15.3808C23.1942 15.1008 23.31 14.6842 23.35 14.5127C23.4806 13.9441 23.3789 13.6786 23.2513 13.5169C23.0574 13.2704 22.7147 13.1914 22.3593 13.1914C22.1455 13.1914 21.6364 13.2124 21.2387 13.5764C20.9531 13.839 20.8211 14.1954 20.7415 14.5371C20.6611 14.8852 20.5687 15.5119 21.1491 15.7451C21.3282 15.8214 21.5864 15.8424 21.7528 15.8424ZM21.7196 14.5631C21.8176 14.1325 21.9334 13.7711 22.2287 13.7711C22.4602 13.7711 22.477 14.04 22.3741 14.472C22.3557 14.5679 22.2712 14.9244 22.1569 15.0763C22.0771 15.1883 21.9827 15.2562 21.8783 15.2562C21.8473 15.2562 21.6626 15.2562 21.6597 14.984C21.6582 14.8495 21.6859 14.7122 21.7196 14.5631ZM24.4129 15.787L24.4461 15.7535C24.4932 15.5056 24.501 15.4474 24.6053 14.9454C24.6575 14.7074 24.7655 14.1843 24.8162 13.9981C24.9122 13.9538 25.0052 13.9104 25.0984 13.9104C25.3119 13.9104 25.2859 14.0967 25.2775 14.1709C25.2697 14.2956 25.1913 14.7024 25.1096 15.0517L25.0588 15.2772C25.02 15.4439 24.9778 15.6056 24.9404 15.7709L24.9566 15.8039C25.3932 15.7808 25.5208 15.7808 25.8945 15.787L25.9397 15.7535C26.0052 15.3661 26.0229 15.2625 26.1457 14.699L26.2042 14.4397C26.3212 13.9328 26.3804 13.6759 26.2937 13.4666C26.1978 13.2319 25.9729 13.1753 25.7705 13.1753C25.6364 13.1753 25.3903 13.2074 25.1717 13.3146C25.0935 13.3552 25.0151 13.402 24.9382 13.449L25.0052 13.1914L24.9693 13.1478C24.5031 13.2418 24.3966 13.2543 23.9664 13.3146L23.9334 13.3384C23.8812 13.7501 23.8388 14.0595 23.6534 14.8691C23.5828 15.1674 23.5095 15.4685 23.4362 15.7661L23.4558 15.8039C23.898 15.7808 24.03 15.7808 24.4129 15.787ZM27.6202 15.8038C27.6476 15.6708 27.8107 14.8824 27.8121 14.8824C27.8121 14.8824 27.9509 14.304 27.9594 14.283C27.9594 14.283 28.0031 14.2228 28.0468 14.1989H28.1111C28.7175 14.1989 29.4023 14.1989 29.939 13.8069C30.3043 13.538 30.5539 13.1409 30.6653 12.6584C30.6942 12.5401 30.7155 12.3994 30.7155 12.2586C30.7155 12.0738 30.6781 11.891 30.5702 11.7481C30.2965 11.3679 29.7514 11.3609 29.1223 11.3581C29.1203 11.3581 28.8121 11.3609 28.8121 11.3609C28.0067 11.3708 27.6838 11.3679 27.5511 11.3518C27.5399 11.41 27.5187 11.5137 27.5187 11.5137C27.5187 11.5137 27.2302 12.8412 27.2302 12.8434C27.2302 12.8434 26.5399 15.666 26.5074 15.799C27.2106 15.7905 27.4989 15.7905 27.6202 15.8038ZM28.1548 13.4455C28.1548 13.4455 28.4615 12.1206 28.4601 12.1256L28.47 12.0577L28.4743 12.0059L28.5969 12.0184C28.5969 12.0184 29.2295 12.0724 29.2443 12.0738C29.494 12.1697 29.5969 12.4169 29.5251 12.7396C29.4595 13.0345 29.2669 13.2824 29.0194 13.4021C28.8155 13.5036 28.5659 13.512 28.3086 13.512H28.1421L28.1548 13.4455ZM30.0646 14.5876C29.9835 14.9307 29.8904 15.5574 30.4679 15.7807C30.652 15.8585 30.8171 15.8817 30.9848 15.8732C31.1619 15.8637 31.326 15.7755 31.478 15.6486C31.4643 15.7008 31.4506 15.7529 31.4368 15.8053L31.463 15.8388C31.8784 15.8214 32.0073 15.8214 32.4574 15.8248L32.4982 15.794C32.5639 15.4104 32.6259 15.0379 32.7966 14.304C32.8799 13.9525 32.9629 13.6044 33.0483 13.2543L33.0349 13.2157C32.5702 13.3013 32.446 13.3195 31.999 13.3825L31.9651 13.4099C31.9606 13.4456 31.9559 13.4798 31.9515 13.514C31.882 13.4025 31.7813 13.3073 31.6259 13.248C31.4271 13.1704 30.9602 13.2704 30.5589 13.6332C30.2769 13.8923 30.1415 14.2472 30.0646 14.5876ZM31.0406 14.6086C31.14 14.1857 31.2543 13.8279 31.5504 13.8279C31.7376 13.8279 31.8362 13.9995 31.8161 14.292C31.8003 14.365 31.7831 14.4419 31.7627 14.5288C31.7331 14.6545 31.701 14.779 31.6697 14.9038C31.638 14.9891 31.6009 15.0696 31.5603 15.1232C31.4841 15.2304 31.3029 15.2969 31.1985 15.2969C31.1689 15.2969 30.9862 15.2969 30.9799 15.0295C30.9785 14.8963 31.0061 14.7591 31.0406 14.6086ZM36.1372 13.2123L36.1013 13.1716C35.6415 13.2641 35.5582 13.2788 35.1358 13.3355L35.1047 13.3663C35.1033 13.3713 35.102 13.379 35.0998 13.386L35.0984 13.379C34.7839 14.0995 34.7931 13.9441 34.5371 14.5112C34.5357 14.4854 34.5357 14.4693 34.5342 14.4418L34.4701 13.2123L34.4299 13.1716C33.9482 13.2641 33.9368 13.2788 33.492 13.3355L33.4573 13.3663C33.4524 13.381 33.4524 13.3971 33.4496 13.4147L33.4524 13.421C33.508 13.7031 33.4947 13.6402 33.5505 14.0855C33.5765 14.304 33.6111 14.5238 33.6371 14.7396C33.681 15.1008 33.7056 15.2786 33.7592 15.8298C33.4588 16.3221 33.3876 16.5083 33.0984 16.9403L33.1004 16.9446L32.8967 17.2644C32.8735 17.2981 32.8523 17.3212 32.8227 17.3311C32.7902 17.3471 32.748 17.3499 32.6893 17.3499H32.5765L32.4088 17.9038L32.9841 17.9137C33.3219 17.9123 33.5342 17.7554 33.6485 17.5446L34.0103 16.929H34.0045L34.0426 16.8857C34.286 16.3655 36.1372 13.2123 36.1372 13.2123ZM30.0646 20.487H29.8205L30.7239 17.5201H31.0236L31.1187 17.2145L31.1279 17.5544C31.1167 17.7645 31.2832 17.9507 31.7204 17.9199H32.2261L32.4002 17.3486H32.2099C32.1005 17.3486 32.0497 17.3212 32.0561 17.2624L32.0469 16.9166H31.1104V16.9184C30.8076 16.9246 29.9035 16.9472 29.7204 16.9956C29.4989 17.0523 29.2655 17.219 29.2655 17.219L29.3572 16.913H28.4812L28.2987 17.5201L27.3832 20.5324H27.2056L27.0313 21.0995H28.7761L28.7176 21.2886H29.5773L29.6343 21.0995H29.8755L30.0646 20.487ZM29.3487 18.123C29.2084 18.1615 28.9474 18.2784 28.9474 18.2784L29.1796 17.5201H29.8755L29.7076 18.0726C29.7076 18.0726 29.4926 18.0852 29.3487 18.123ZM29.3621 19.2062C29.3621 19.2062 29.1435 19.2335 28.9996 19.2657C28.8578 19.3084 28.5921 19.4428 28.5921 19.4428L28.8318 18.6538H29.5314L29.3621 19.2062ZM28.9721 20.494H28.274L28.4764 19.8281H29.1723L28.9721 20.494ZM30.6534 18.6538H31.6597L31.5151 19.1187H30.4954L30.3423 19.6271H31.2345L30.559 20.5716C30.5117 20.641 30.4692 20.6656 30.4221 20.6851C30.3748 20.7089 30.3127 20.7369 30.2409 20.7369H29.9933L29.8233 21.2937H30.4707C30.8072 21.2937 31.006 21.1417 31.1528 20.9421L31.616 20.3126L31.7155 20.9518C31.7366 21.0716 31.8233 21.1417 31.8819 21.1689C31.9468 21.2012 32.0137 21.2566 32.1083 21.2648C32.2098 21.2691 32.2831 21.2725 32.3318 21.2725H32.65L32.841 20.6494H32.7155C32.6435 20.6494 32.5194 20.6374 32.4983 20.615C32.4772 20.5878 32.4772 20.5458 32.4658 20.482L32.3649 19.8413H31.9516L32.1329 19.6271H33.1506L33.3071 19.1187H32.3649L32.5117 18.6538H33.451L33.6252 18.0803H30.8247L30.6534 18.6538ZM22.154 20.6235L22.3889 19.8477H23.3542L23.5306 19.2706H22.5644L22.7119 18.7931H23.6561L23.831 18.2343H21.4685L21.2972 18.7931H21.8339L21.6908 19.2706H21.1526L20.9742 19.8575H21.5108L21.1977 20.8839C21.1555 21.0198 21.2176 21.0716 21.2569 21.1347C21.2972 21.1962 21.338 21.2369 21.4297 21.26C21.5243 21.281 21.5891 21.2935 21.6772 21.2935H22.7655L22.9594 20.6543L22.477 20.7201C22.3839 20.7201 22.1259 20.709 22.154 20.6235ZM22.2648 16.9095L22.0201 17.3485C21.9678 17.4444 21.9206 17.5039 21.8782 17.5313C21.8408 17.5545 21.7668 17.5641 21.6596 17.5641H21.5319L21.3613 18.1258H21.7852C21.9891 18.1258 22.1456 18.0515 22.2203 18.0144C22.3007 17.9718 22.3218 17.9961 22.3839 17.9366L22.5271 17.8135H23.8508L24.0264 17.2288H23.0575L23.2267 16.9095H22.2648ZM24.219 20.6348C24.1964 20.6025 24.2126 20.5457 24.2471 20.4274L24.6089 19.2383H25.896C26.0835 19.2357 26.2189 19.2335 26.3071 19.2272C26.4017 19.2174 26.5046 19.1839 26.6167 19.1236C26.7324 19.0605 26.7916 18.994 26.8416 18.9177C26.8974 18.8415 26.987 18.6748 27.0639 18.4177L27.5186 16.913L26.183 16.9207C26.183 16.9207 25.7718 16.981 25.5907 17.0475C25.408 17.1217 25.1469 17.3289 25.1469 17.3289L25.2675 16.9164H24.4425L23.2874 20.7201C23.2464 20.8678 23.219 20.975 23.2126 21.0393C23.2105 21.1087 23.3007 21.1774 23.3592 21.2292C23.4284 21.281 23.5306 21.2726 23.6286 21.281C23.7317 21.2887 23.8783 21.2935 24.0807 21.2935H24.7147L24.9093 20.641L24.3417 20.6943C24.2811 20.6943 24.2372 20.662 24.219 20.6348ZM24.8424 18.4353H26.1942L26.1083 18.7027C26.0962 18.709 26.0673 18.6895 25.9297 18.7056H24.7591L24.8424 18.4353ZM25.1132 17.5383H26.4764L26.3784 17.8604C26.3784 17.8604 25.7358 17.8541 25.6329 17.8729C25.1801 17.9507 24.9157 18.1909 24.9157 18.1909L25.1132 17.5383ZM26.1385 19.5983C26.1273 19.6383 26.1097 19.6627 26.0849 19.681C26.0575 19.6986 26.0131 19.7048 25.9468 19.7048H25.7542L25.7655 19.3791H24.9643L24.9318 20.9715C24.9306 21.0864 24.9418 21.1529 25.0264 21.2061C25.1111 21.2726 25.372 21.281 25.7231 21.281H26.2252L26.4065 20.685L25.9694 20.7088L25.824 20.7173C25.8042 20.7088 25.7852 20.7011 25.7641 20.6802C25.7457 20.6621 25.7146 20.6732 25.7197 20.5583L25.7231 20.1501L26.1815 20.1313C26.429 20.1313 26.5348 20.0513 26.6251 19.9751C26.7112 19.9022 26.7394 19.8183 26.7719 19.7048L26.8488 19.3434H26.2189L26.1385 19.5983Z" fill="#FEFEFE"/>
</svg>
